<svg width="106" height="106" viewBox="0 0 106 106" fill="none" xmlns="http://www.w3.org/2000/svg">
<path d="M105.999 49.8878C105.999 51.958 105.999 54.0283 105.999 56.0985C105.937 56.3962 105.845 56.6905 105.824 56.9916C105.308 64.3864 103.391 71.4183 99.7642 77.8686C90.0015 95.2279 75.1163 104.679 55.2248 105.904C45.7051 106.489 36.5926 104.45 28.2432 99.7995C10.8018 90.0848 1.33685 75.1619 0.0981248 55.2328C-0.497285 45.6754 1.6106 36.5561 6.23016 28.1519C14.4495 13.1982 26.9908 4.06179 43.7718 0.834942C45.7941 0.444846 47.8575 0.273751 49.9004 0C51.9706 0 54.0409 0 56.1111 0C56.4122 0.0615941 56.7099 0.157407 57.0111 0.177938C62.4108 0.557769 67.6668 1.67331 72.6354 3.80515C90.5148 11.4736 101.437 24.8361 105.181 43.9713C105.561 45.9252 105.729 47.9168 105.999 49.8878ZM37.8758 52.8854C37.8758 57.8505 37.8621 62.8123 37.8792 67.7775C37.8929 71.1104 40.6613 72.8624 43.6315 71.3841C53.4934 66.4771 63.3416 61.5428 73.1898 56.6118C74.6749 55.8693 75.7014 54.7469 75.698 53.0051C75.6946 51.2257 74.6714 50.1136 73.1247 49.3437C63.3552 44.4812 53.6029 39.5947 43.8368 34.7254C40.5997 33.1137 37.8792 34.8007 37.8758 38.4073C37.869 43.2322 37.8758 48.0605 37.8758 52.8854Z" fill="url(#paint0_linear_501_56)"/>
<path d="M37.8759 52.8855C37.8759 48.0606 37.8691 43.2323 37.8794 38.4074C37.8862 34.7973 40.6066 33.1138 43.8403 34.7255C53.6064 39.5948 63.3588 44.4813 73.1283 49.3438C74.675 50.1137 75.6981 51.2258 75.7015 53.0052C75.705 54.747 74.6784 55.8694 73.1933 56.6119C63.3417 61.5429 53.4969 66.4807 43.635 71.3842C40.6648 72.8625 37.8965 71.1071 37.8828 67.7775C37.8622 62.8158 37.8759 57.8506 37.8759 52.8855Z" fill="white"/>
<defs>
<linearGradient id="paint0_linear_501_56" x1="-0.906639" y1="1.80429" x2="125.224" y2="70.9468" gradientUnits="userSpaceOnUse">
<stop stop-color="#CAB0B3"/>
<stop offset="0.388761" stop-color="#C3181F"/>
<stop offset="0.998796" stop-color="#0B0E17"/>
<stop offset="1" stop-color="#09101D"/>
</linearGradient>
</defs>
</svg>
