<svg width="24" height="24" viewBox="0 0 24 24" fill="none" xmlns="http://www.w3.org/2000/svg">
<g opacity="0.8">
<path d="M21.456 10.1543C21.579 10.8133 21.646 11.5023 21.646 12.2213C21.646 17.8453 17.882 21.8442 12.197 21.8442C10.9042 21.8446 9.62393 21.5903 8.42943 21.0957C7.23492 20.6012 6.14957 19.8761 5.23539 18.9619C4.32121 18.0477 3.59612 16.9624 3.10155 15.7679C2.60699 14.5733 2.35263 13.2931 2.35303 12.0003C2.35263 10.7074 2.60699 9.42716 3.10155 8.23265C3.59612 7.03814 4.32121 5.95279 5.23539 5.03861C6.14957 4.12443 7.23492 3.39935 8.42943 2.90478C9.62393 2.41021 10.9042 2.15586 12.197 2.15625C14.855 2.15625 17.076 3.13425 18.78 4.72225L16.005 7.49725V7.49025C14.972 6.50625 13.661 6.00125 12.197 6.00125C8.94903 6.00125 6.30903 8.74525 6.30903 11.9943C6.30903 15.2423 8.94903 17.9923 12.197 17.9923C15.144 17.9923 17.15 16.3073 17.562 13.9933H12.197V10.1543H21.457H21.456Z" fill="#0F4CA5"/>
</g>
</svg>
